<svg id="Layer_1" data-name="Layer 1" xmlns="http://www.w3.org/2000/svg" viewBox="0 0 2146.09 2145.75">
  <defs>
    <style>
      .cls-1 {
        fill: #231f20;
      }

      .cls-1, .cls-2, .cls-3, .cls-4, .cls-5, .cls-6 {
        fill-rule: evenodd;
      }

      .cls-2 {
        fill: #f13e2d;
      }

      .cls-3 {
        fill: #fefefe;
      }

      .cls-4 {
        fill: #a09d9d;
      }

      .cls-5 {
        fill: #58585a;
      }

      .cls-6 {
        fill: #363638;
      }
    </style>
  </defs>
  <g id="WS3Sdq">
    <g>
      <path class="cls-1" d="M2296,1244.82c6.31,538.91-433.47,1063.69-1064.08,1069.69C638,2320.15,149.74,1844.4,150,1244.29,150.18,624.89,647.6,176.35,1207.86,168.9,1803.9,161,2297.16,641.64,2296,1244.82Z" transform="translate(-149.95 -168.81)"/>
      <path class="cls-2" d="M574.52,424.78c36.11-31.36,76-57.35,117-81.68,122.71-72.87,254.88-120,396.49-136.55,312.74-36.51,590.38,46.8,827.47,254.8,179.83,157.77,289.8,357,334.8,591.95,8.24,43,12.59,86.65,15.45,130.37,1,14.78.46,15-13.19,9.5-74.5-30.23-147.27-64.55-222.37-93.32-60.09-23-121.47-41.73-184.6-54.2-11.24-2.22-15.9-7-18.74-18.1-38.6-150.71-174.89-263.57-329.35-273.38-159.35-10.12-298.12,71.94-365.58,216.76-4.65,10-10.06,13.19-21,13.53-184.13,5.58-364.5,34.95-541.45,86C444.26,1106.62,322,1151.2,200.8,1198.64c-6.28,2.45-12.66,4.7-20.16,7.48-1.84-13.11.14-25.08,1-37.08,17.22-235,104.23-440.87,259-618.29,8.09-9.28,16.81-18,25.24-27,3.77,6.41-1.38,10.39-4.32,14.69-26,38.06-45.21,79-52.49,124.83-8.67,54.64,1.44,104.4,40.92,145.17,21.49,22.19,48.42,35.92,78.7,42.34,57.69,12.24,113.36,3.92,167.57-17.44A394.93,394.93,0,0,0,831,745.15c51.6-51.4,90.07-111.13,99.86-185.36C944.32,458.1,885.25,388.11,793.07,375c-70.82-10.06-135.58,9.32-197.13,43C589.43,421.54,583.89,429.68,574.52,424.78Z" transform="translate(-149.95 -168.81)"/>
      <path class="cls-3" d="M537.22,1352.35a2592.81,2592.81,0,0,1,299.29-62c67.59-10,135.48-16.83,203.58-21.78,26.25-1.91,52.6-2.44,78.86-4.33,8.28-.6,10.79,3.77,13.66,9.89C1179.26,1373.55,1254,1442.72,1359,1475c126.56,38.91,242.49,14.52,345.88-68.06a326.67,326.67,0,0,0,70.58-78.1c4.9-7.56,9.64-9.67,18.76-7.77,129.69,27,255.8,66,379.73,112.4,19.1,7.15,37.87,15.26,57.28,21.45,10.16,3.24,10.75,8.52,8.67,17-10.52,43-22.56,85.44-38.14,126.85-21.58,57.36-46.6,113.11-78.77,165.43-3.08,5-6.86,9.62-10.32,14.41-10.9,16.15-27.28,26.72-41.37,39.46a959,959,0,0,1-128.73,98.1c-81.45,51.75-168.94,89.52-262,114.78a887.81,887.81,0,0,1-172.07,29.14c-156.82,10.75-307.51-14.88-451.5-78.73a917.49,917.49,0,0,1-189.36-112.5c-59.07-45.59-112.32-97.33-159-156q-123-154.51-174.39-344.79C532.74,1362.42,530.16,1356.49,537.22,1352.35Z" transform="translate(-149.95 -168.81)"/>
      <path class="cls-4" d="M537.22,1352.35c-3,3.9-1.71,7.86-.6,12.1A917.55,917.55,0,0,0,642,1612.38q86.61,141.43,216.79,245c117.24,92.75,249.2,153.39,395.28,183.46,47.47,9.77,95.61,14.9,144.17,17.11,124,5.63,244.08-13.05,360.61-55.07A925.89,925.89,0,0,0,1959.63,1901c49.66-33.16,94.43-72.16,139-111.48,4.43-3.9,9.33-7.28,14-10.9-8.48,21.95-23.39,40-36.45,59.08-41.44,60.51-90.46,114.64-143.94,164.58a1037.75,1037.75,0,0,1-467.2,249.81,1047.45,1047.45,0,0,1-169.22,25.74c-24.57,1.71-49.19,2.25-73.67,2.89-33.82.88-67.88-1.72-101.63-5a1031.12,1031.12,0,0,1-272-64.2c-112.63-43.23-215-103.79-306.37-182.72q-257.25-222.18-337.91-552.29c-2.81-11.48.43-15.43,10.63-19.31,100.63-38.26,202.52-72.6,306.47-100.74C526.65,1355.09,531.94,1353.73,537.22,1352.35Z" transform="translate(-149.95 -168.81)"/>
      <path class="cls-5" d="M256.25,1199.05c50.26-19.17,100.65-38,151.51-55.54,57.6-19.92,115.39-39.29,174.29-54.76,73.32-19.24,146.84-37.88,221.68-50.61,58-9.87,116.24-18.42,175-23.33,36.76-3.07,73.45-6.5,110.36-7.84,14.8-.53,29.63-2.14,44.48-1.86,7,.13,9.4-3.53,11.63-9.21,28.55-72.43,76.37-129,142.3-169.94A334.79,334.79,0,0,1,1427,777.48c93.91-10.89,178.85,12.1,253.85,69.1,66.68,50.67,109.39,117.71,128,199.49,2.59,11.36,7.65,15.79,18.5,17.85,110,20.89,213.45,61.17,315.3,106.36,39.58,17.57,79.62,34.11,119.69,50.54,7.41,3,11.16,7.15,11.41,14.78,2.23,66.37.34,132.41-15.22,197.44-2.37,9.89-7.71,7.79-14,5.3q-101.25-40.21-205-73.41a2465.4,2465.4,0,0,0-258.21-67.73c-8.74-1.79-11.53,2.51-14.86,8-27.77,45.27-63.8,82.58-108.55,111.14-48.4,30.88-101.06,49-158.62,53.9-82.42,7.08-157.32-13-225.65-58.75-59-39.46-100.64-93.22-127.66-158.37-3.83-9.25-8.74-10.92-17.14-10.39-42.31,2.65-84.75,4-127,7.9-55.63,5.05-111.16,11.11-166.53,19.12-76,11-151.13,25.72-225.93,42.46-28,6.27-55.1,16.57-83,23.23-35.05,8.36-69.21,19.6-103.79,29.41-6.09,1.73-11.48,5.81-18.18,5.42-12.83,4.55-24.33-1-35.41-5.73-67.1-28.89-105.9-79.77-116.76-152C251.45,1207.3,250.54,1202.23,256.25,1199.05Z" transform="translate(-149.95 -168.81)"/>
      <path class="cls-3" d="M574.52,424.78c5.37,1,8.54-3.23,12.4-5.47,56.35-32.56,116.19-52,182.07-50.33,78,2,140,45.08,160,112.11,11.55,38.75,9.29,77.58-2.32,115.73-27.33,89.77-85.61,155.63-163.06,205.47-60.78,39.12-127,61.11-200.34,57.23-83.66-4.43-145.5-56.27-158-133.38-7-43.29,1.51-84.67,17.9-124.72,9.7-23.72,22.46-45.79,37.18-66.77,2.32-3.29,6.48-5.86,5.56-10.89q15.67-16.69,31.34-33.39C520.48,465.54,548,445.7,574.52,424.78Z" transform="translate(-149.95 -168.81)"/>
      <path class="cls-6" d="M256.25,1199.05c-4.64,12.46.3,24.59,3.44,35.82,19.34,69.31,64.16,114.18,133.34,134.4,3.58,1,7.57.67,11.37,1-34.33,11.61-68.73,23-103,34.86-33.09,11.48-66.4,22.46-98.49,36.62-7.78,3.44-9.6-.1-11.3-6.39-5.73-21.24-8.38-43-12.09-64.64-7.22-42.11-4.38-84.57-5.16-126.92-.17-9.44,2.88-14.52,12.17-17.86C210,1217.49,232.34,1206.26,256.25,1199.05Z" transform="translate(-149.95 -168.81)"/>
      <path class="cls-1" d="M1479,859.31c139.58-1.7,257.39,114.13,256,258.25-1.39,140.46-113.45,254.93-257.77,254.58-143.82-.36-255.49-117.06-255.42-257C1221.8,974.78,1336.42,857.18,1479,859.31Z" transform="translate(-149.95 -168.81)"/>
      <path class="cls-3" d="M1243.51,1113.66c1.58-130,107.8-234.6,236.53-233.06,132.7,1.58,234.5,107.87,232.67,242.9-1.72,126.38-110.3,228.3-241.24,226.44C1346.12,1348.16,1242,1240.21,1243.51,1113.66Z" transform="translate(-149.95 -168.81)"/>
      <path class="cls-1" d="M1478.68,934.71c100.27.55,181.07,82,180.25,181.67s-81.54,179.94-180.93,179.69c-100.57-.26-180.91-81.83-180.13-182.91C1298.63,1014.59,1380.11,934.17,1478.68,934.71Z" transform="translate(-149.95 -168.81)"/>
      <path class="cls-3" d="M1644.68,1118.27c-4.54,97.06-80.72,167.5-176.24,162.94-88.35-4.22-161-83.73-156.43-171.25,4.84-93.07,82.25-165.26,172.39-160.78C1575.44,953.71,1648.77,1031.07,1644.68,1118.27Z" transform="translate(-149.95 -168.81)"/>
    </g>
  </g>
</svg>
